<?xml version="1.0" encoding="UTF-8" standalone="yes"?>
<!-- Created with qrencode 4.1.1 (https://fukuchi.org/works/qrencode/index.html) -->
<svg width="7.30cm" height="7.30cm" viewBox="0 0 69 69" preserveAspectRatio="none" version="1.1" xmlns="http://www.w3.org/2000/svg">
	<g id="QRcode">
		<rect x="0" y="0" width="69" height="69" fill="#000000" fill-opacity="0.000000"/>
		<path style="stroke:#e6e6e6" transform="translate(4,4.5)" d="M0,0h1M1,0h1M2,0h1M3,0h1M4,0h1M5,0h1M6,0h1M9,0h1M11,0h1M13,0h1M14,0h1M19,0h1M20,0h1M21,0h1M22,0h1M23,0h1M24,0h1M25,0h1M26,0h1M28,0h1M30,0h1M32,0h1M34,0h1M35,0h1M36,0h1M37,0h1M40,0h1M42,0h1M44,0h1M45,0h1M48,0h1M49,0h1M51,0h1M52,0h1M54,0h1M55,0h1M56,0h1M57,0h1M58,0h1M59,0h1M60,0h1M0,1h1M6,1h1M8,1h1M13,1h1M15,1h1M16,1h1M17,1h1M20,1h1M21,1h1M22,1h1M23,1h1M25,1h1M29,1h1M32,1h1M35,1h1M39,1h1M41,1h1M43,1h1M47,1h1M51,1h1M52,1h1M54,1h1M60,1h1M0,2h1M2,2h1M3,2h1M4,2h1M6,2h1M9,2h1M10,2h1M13,2h1M14,2h1M15,2h1M16,2h1M17,2h1M18,2h1M20,2h1M26,2h1M28,2h1M30,2h1M34,2h1M38,2h1M42,2h1M44,2h1M45,2h1M48,2h1M50,2h1M51,2h1M52,2h1M54,2h1M56,2h1M57,2h1M58,2h1M60,2h1M0,3h1M2,3h1M3,3h1M4,3h1M6,3h1M9,3h1M11,3h1M13,3h1M14,3h1M16,3h1M19,3h1M20,3h1M22,3h1M23,3h1M25,3h1M27,3h1M29,3h1M32,3h1M39,3h1M43,3h1M44,3h1M45,3h1M46,3h1M47,3h1M50,3h1M52,3h1M54,3h1M56,3h1M57,3h1M58,3h1M60,3h1M0,4h1M2,4h1M3,4h1M4,4h1M6,4h1M8,4h1M10,4h1M11,4h1M13,4h1M15,4h1M16,4h1M17,4h1M18,4h1M22,4h1M24,4h1M26,4h1M28,4h1M29,4h1M30,4h1M31,4h1M32,4h1M34,4h1M36,4h1M38,4h1M42,4h1M45,4h1M46,4h1M48,4h1M49,4h1M50,4h1M51,4h1M54,4h1M56,4h1M57,4h1M58,4h1M60,4h1M0,5h1M6,5h1M9,5h1M13,5h1M15,5h1M18,5h1M19,5h1M21,5h1M22,5h1M25,5h1M27,5h1M28,5h1M32,5h1M35,5h1M36,5h1M39,5h1M43,5h1M45,5h1M46,5h1M47,5h1M49,5h1M50,5h1M54,5h1M60,5h1M0,6h1M1,6h1M2,6h1M3,6h1M4,6h1M5,6h1M6,6h1M8,6h1M10,6h1M12,6h1M14,6h1M16,6h1M18,6h1M20,6h1M22,6h1M24,6h1M26,6h1M28,6h1M30,6h1M32,6h1M34,6h1M36,6h1M38,6h1M40,6h1M42,6h1M44,6h1M46,6h1M48,6h1M50,6h1M52,6h1M54,6h1M55,6h1M56,6h1M57,6h1M58,6h1M59,6h1M60,6h1M9,7h1M12,7h1M13,7h1M14,7h1M16,7h1M17,7h1M18,7h1M19,7h1M20,7h1M22,7h1M23,7h1M24,7h1M25,7h1M28,7h1M32,7h1M33,7h1M35,7h1M37,7h1M39,7h1M41,7h1M43,7h1M45,7h1M47,7h1M49,7h1M0,8h1M2,8h1M4,8h1M6,8h1M10,8h1M12,8h1M13,8h1M14,8h1M18,8h1M19,8h1M20,8h1M24,8h1M26,8h1M28,8h1M29,8h1M30,8h1M31,8h1M32,8h1M34,8h1M36,8h1M38,8h1M40,8h1M42,8h1M44,8h1M46,8h1M48,8h1M50,8h1M52,8h1M56,8h1M59,8h1M1,9h1M3,9h1M5,9h1M7,9h1M8,9h1M9,9h1M10,9h1M11,9h1M12,9h1M13,9h1M15,9h1M18,9h1M20,9h1M21,9h1M22,9h1M24,9h1M25,9h1M27,9h1M30,9h1M31,9h1M33,9h1M35,9h1M37,9h1M39,9h1M41,9h1M43,9h1M45,9h1M47,9h1M49,9h1M51,9h1M53,9h1M55,9h1M57,9h1M58,9h1M59,9h1M2,10h1M3,10h1M6,10h1M7,10h1M8,10h1M12,10h1M13,10h1M17,10h1M18,10h1M20,10h1M25,10h1M26,10h1M30,10h1M31,10h1M32,10h1M34,10h1M36,10h1M38,10h1M40,10h1M42,10h1M44,10h1M46,10h1M48,10h1M50,10h1M52,10h1M54,10h1M57,10h1M60,10h1M2,11h1M4,11h1M5,11h1M7,11h1M8,11h1M10,11h1M15,11h1M16,11h1M17,11h1M18,11h1M19,11h1M21,11h1M22,11h1M23,11h1M27,11h1M28,11h1M29,11h1M33,11h1M35,11h1M37,11h1M39,11h1M41,11h1M43,11h1M45,11h1M47,11h1M49,11h1M51,11h1M53,11h1M55,11h1M59,11h1M0,12h1M3,12h1M5,12h1M6,12h1M9,12h1M10,12h1M11,12h1M14,12h1M15,12h1M17,12h1M19,12h1M20,12h1M21,12h1M22,12h1M23,12h1M26,12h1M28,12h1M30,12h1M32,12h1M34,12h1M36,12h1M38,12h1M40,12h1M42,12h1M44,12h1M46,12h1M48,12h1M50,12h1M52,12h1M54,12h1M56,12h1M58,12h1M60,12h1M4,13h1M5,13h1M9,13h1M12,13h1M15,13h1M17,13h1M18,13h1M19,13h1M27,13h1M28,13h1M29,13h1M30,13h1M31,13h1M33,13h1M35,13h1M37,13h1M39,13h1M45,13h1M47,13h1M49,13h1M51,13h1M53,13h1M55,13h1M56,13h1M57,13h1M59,13h1M4,14h1M5,14h1M6,14h1M7,14h1M9,14h1M10,14h1M11,14h1M13,14h1M15,14h1M17,14h1M18,14h1M19,14h1M21,14h1M22,14h1M23,14h1M24,14h1M25,14h1M26,14h1M28,14h1M31,14h1M32,14h1M34,14h1M38,14h1M40,14h1M41,14h1M44,14h1M46,14h1M48,14h1M50,14h1M52,14h1M54,14h1M56,14h1M57,14h1M58,14h1M60,14h1M0,15h1M4,15h1M7,15h1M9,15h1M10,15h1M13,15h1M15,15h1M17,15h1M19,15h1M26,15h1M27,15h1M29,15h1M31,15h1M35,15h1M37,15h1M39,15h1M41,15h1M43,15h1M45,15h1M47,15h1M48,15h1M49,15h1M51,15h1M53,15h1M54,15h1M56,15h1M59,15h1M0,16h1M2,16h1M5,16h1M6,16h1M7,16h1M8,16h1M9,16h1M10,16h1M11,16h1M12,16h1M15,16h1M17,16h1M18,16h1M19,16h1M20,16h1M21,16h1M22,16h1M24,16h1M26,16h1M28,16h1M31,16h1M32,16h1M33,16h1M34,16h1M35,16h1M37,16h1M39,16h1M42,16h1M43,16h1M45,16h1M46,16h1M47,16h1M48,16h1M50,16h1M52,16h1M54,16h1M55,16h1M56,16h1M57,16h1M60,16h1M0,17h1M1,17h1M3,17h1M4,17h1M5,17h1M10,17h1M11,17h1M12,17h1M18,17h1M20,17h1M22,17h1M23,17h1M25,17h1M27,17h1M29,17h1M31,17h1M32,17h1M33,17h1M34,17h1M35,17h1M36,17h1M39,17h1M40,17h1M42,17h1M43,17h1M44,17h1M45,17h1M48,17h1M49,17h1M51,17h1M53,17h1M56,17h1M58,17h1M60,17h1M2,18h1M3,18h1M4,18h1M5,18h1M6,18h1M7,18h1M8,18h1M10,18h1M11,18h1M12,18h1M14,18h1M15,18h1M20,18h1M22,18h1M25,18h1M28,18h1M29,18h1M30,18h1M31,18h1M32,18h1M33,18h1M35,18h1M39,18h1M41,18h1M42,18h1M43,18h1M46,18h1M47,18h1M50,18h1M52,18h1M54,18h1M55,18h1M57,18h1M59,18h1M60,18h1M0,19h1M2,19h1M4,19h1M7,19h1M8,19h1M9,19h1M11,19h1M12,19h1M13,19h1M19,19h1M20,19h1M21,19h1M24,19h1M25,19h1M26,19h1M27,19h1M29,19h1M31,19h1M33,19h1M35,19h1M39,19h1M41,19h1M43,19h1M47,19h1M49,19h1M51,19h1M55,19h1M59,19h1M0,20h1M1,20h1M3,20h1M6,20h1M9,20h1M11,20h1M13,20h1M14,20h1M16,20h1M19,20h1M20,20h1M22,20h1M25,20h1M28,20h1M29,20h1M30,20h1M32,20h1M33,20h1M34,20h1M35,20h1M36,20h1M38,20h1M40,20h1M42,20h1M44,20h1M46,20h1M48,20h1M50,20h1M52,20h1M53,20h1M54,20h1M56,20h1M58,20h1M59,20h1M1,21h1M2,21h1M3,21h1M4,21h1M5,21h1M8,21h1M11,21h1M13,21h1M15,21h1M16,21h1M17,21h1M19,21h1M23,21h1M25,21h1M27,21h1M29,21h1M31,21h1M33,21h1M35,21h1M37,21h1M39,21h1M41,21h1M42,21h1M43,21h1M44,21h1M45,21h1M46,21h1M47,21h1M49,21h1M50,21h1M51,21h1M55,21h1M57,21h1M59,21h1M60,21h1M0,22h1M2,22h1M4,22h1M6,22h1M7,22h1M8,22h1M9,22h1M10,22h1M12,22h1M13,22h1M17,22h1M18,22h1M21,22h1M22,22h1M24,22h1M26,22h1M28,22h1M29,22h1M30,22h1M32,22h1M34,22h1M35,22h1M36,22h1M38,22h1M40,22h1M42,22h1M44,22h1M48,22h1M50,22h1M52,22h1M55,22h1M56,22h1M58,22h1M59,22h1M60,22h1M0,23h1M2,23h1M4,23h1M7,23h1M8,23h1M11,23h1M14,23h1M15,23h1M16,23h1M17,23h1M18,23h1M19,23h1M22,23h1M23,23h1M25,23h1M28,23h1M29,23h1M31,23h1M34,23h1M35,23h1M36,23h1M38,23h1M42,23h1M43,23h1M50,23h1M51,23h1M53,23h1M55,23h1M57,23h1M59,23h1M0,24h1M3,24h1M6,24h1M7,24h1M8,24h1M9,24h1M12,24h1M15,24h1M17,24h1M18,24h1M19,24h1M20,24h1M21,24h1M24,24h1M26,24h1M29,24h1M30,24h1M32,24h1M35,24h1M36,24h1M39,24h1M44,24h1M45,24h1M48,24h1M49,24h1M53,24h1M54,24h1M56,24h1M58,24h1M0,25h1M1,25h1M2,25h1M4,25h1M7,25h1M9,25h1M10,25h1M12,25h1M13,25h1M14,25h1M15,25h1M17,25h1M18,25h1M21,25h1M24,25h1M25,25h1M28,25h1M29,25h1M34,25h1M35,25h1M38,25h1M39,25h1M42,25h1M43,25h1M44,25h1M45,25h1M47,25h1M49,25h1M53,25h1M55,25h1M57,25h1M59,25h1M60,25h1M3,26h1M6,26h1M9,26h1M10,26h1M11,26h1M14,26h1M16,26h1M17,26h1M22,26h1M26,26h1M27,26h1M28,26h1M30,26h1M32,26h1M34,26h1M35,26h1M36,26h1M38,26h1M40,26h1M42,26h1M44,26h1M45,26h1M48,26h1M52,26h1M54,26h1M56,26h1M58,26h1M59,26h1M2,27h1M5,27h1M7,27h1M8,27h1M10,27h1M11,27h1M13,27h1M16,27h1M17,27h1M18,27h1M20,27h1M22,27h1M24,27h1M25,27h1M27,27h1M29,27h1M33,27h1M35,27h1M37,27h1M39,27h1M41,27h1M43,27h1M45,27h1M48,27h1M49,27h1M51,27h1M53,27h1M56,27h1M57,27h1M59,27h1M60,27h1M0,28h1M4,28h1M5,28h1M6,28h1M7,28h1M8,28h1M10,28h1M11,28h1M12,28h1M14,28h1M18,28h1M19,28h1M21,28h1M22,28h1M23,28h1M24,28h1M26,28h1M27,28h1M28,28h1M29,28h1M30,28h1M31,28h1M32,28h1M34,28h1M35,28h1M36,28h1M38,28h1M40,28h1M42,28h1M44,28h1M47,28h1M48,28h1M50,28h1M52,28h1M53,28h1M54,28h1M55,28h1M56,28h1M58,28h1M60,28h1M0,29h1M3,29h1M4,29h1M8,29h1M10,29h1M13,29h1M14,29h1M15,29h1M17,29h1M18,29h1M19,29h1M21,29h1M25,29h1M27,29h1M28,29h1M32,29h1M33,29h1M35,29h1M37,29h1M39,29h1M41,29h1M43,29h1M45,29h1M47,29h1M49,29h1M52,29h1M56,29h1M57,29h1M58,29h1M59,29h1M2,30h1M3,30h1M4,30h1M6,30h1M8,30h1M9,30h1M10,30h1M14,30h1M15,30h1M17,30h1M26,30h1M28,30h1M30,30h1M32,30h1M34,30h1M36,30h1M38,30h1M40,30h1M42,30h1M44,30h1M46,30h1M48,30h1M50,30h1M52,30h1M54,30h1M56,30h1M57,30h1M60,30h1M0,31h1M2,31h1M4,31h1M8,31h1M11,31h1M15,31h1M16,31h1M18,31h1M20,31h1M22,31h1M25,31h1M28,31h1M32,31h1M33,31h1M36,31h1M37,31h1M39,31h1M41,31h1M43,31h1M45,31h1M47,31h1M51,31h1M52,31h1M56,31h1M58,31h1M59,31h1M1,32h1M2,32h1M4,32h1M5,32h1M6,32h1M7,32h1M8,32h1M10,32h1M12,32h1M13,32h1M15,32h1M16,32h1M18,32h1M21,32h1M24,32h1M26,32h1M27,32h1M28,32h1M29,32h1M30,32h1M31,32h1M32,32h1M34,32h1M36,32h1M38,32h1M39,32h1M40,32h1M42,32h1M44,32h1M46,32h1M48,32h1M49,32h1M52,32h1M53,32h1M54,32h1M55,32h1M56,32h1M57,32h1M60,32h1M0,33h1M4,33h1M7,33h1M8,33h1M9,33h1M12,33h1M16,33h1M17,33h1M18,33h1M20,33h1M21,33h1M23,33h1M25,33h1M29,33h1M31,33h1M33,33h1M35,33h1M37,33h1M39,33h1M41,33h1M43,33h1M45,33h1M47,33h1M49,33h1M53,33h1M55,33h1M59,33h1M0,34h1M1,34h1M2,34h1M3,34h1M4,34h1M5,34h1M6,34h1M11,34h1M12,34h1M14,34h1M17,34h1M18,34h1M21,34h1M22,34h1M23,34h1M26,34h1M27,34h1M30,34h1M32,34h1M34,34h1M36,34h1M38,34h1M40,34h1M42,34h1M44,34h1M46,34h1M48,34h1M50,34h1M52,34h1M54,34h1M56,34h1M58,34h1M60,34h1M2,35h1M3,35h1M4,35h1M10,35h1M14,35h1M16,35h1M17,35h1M19,35h1M22,35h1M24,35h1M26,35h1M27,35h1M28,35h1M29,35h1M31,35h1M33,35h1M34,35h1M37,35h1M38,35h1M41,35h1M45,35h1M47,35h1M48,35h1M49,35h1M51,35h1M53,35h1M55,35h1M57,35h1M59,35h1M0,36h1M3,36h1M4,36h1M6,36h1M11,36h1M12,36h1M13,36h1M14,36h1M18,36h1M19,36h1M24,36h1M25,36h1M26,36h1M28,36h1M30,36h1M34,36h1M36,36h1M38,36h1M40,36h1M44,36h1M47,36h1M48,36h1M50,36h1M52,36h1M54,36h1M56,36h1M60,36h1M1,37h1M2,37h1M5,37h1M9,37h1M14,37h1M15,37h1M20,37h1M21,37h1M23,37h1M25,37h1M27,37h1M29,37h1M32,37h1M41,37h1M45,37h1M47,37h1M48,37h1M50,37h1M51,37h1M55,37h1M5,38h1M6,38h1M7,38h1M8,38h1M9,38h1M10,38h1M11,38h1M12,38h1M15,38h1M17,38h1M18,38h1M21,38h1M24,38h1M26,38h1M28,38h1M30,38h1M32,38h1M36,38h1M40,38h1M42,38h1M44,38h1M46,38h1M48,38h1M50,38h1M52,38h1M54,38h1M57,38h1M58,38h1M59,38h1M0,39h1M2,39h1M3,39h1M4,39h1M9,39h1M10,39h1M11,39h1M12,39h1M13,39h1M14,39h1M16,39h1M17,39h1M18,39h1M20,39h1M23,39h1M27,39h1M30,39h1M31,39h1M33,39h1M34,39h1M38,39h1M39,39h1M41,39h1M45,39h1M46,39h1M47,39h1M49,39h1M51,39h1M53,39h1M59,39h1M2,40h1M3,40h1M4,40h1M6,40h1M9,40h1M11,40h1M13,40h1M14,40h1M15,40h1M17,40h1M20,40h1M22,40h1M23,40h1M24,40h1M26,40h1M28,40h1M29,40h1M30,40h1M32,40h1M35,40h1M36,40h1M40,40h1M42,40h1M43,40h1M46,40h1M48,40h1M50,40h1M52,40h1M58,40h1M60,40h1M4,41h1M5,41h1M7,41h1M8,41h1M9,41h1M10,41h1M11,41h1M14,41h1M16,41h1M17,41h1M19,41h1M23,41h1M27,41h1M29,41h1M30,41h1M31,41h1M35,41h1M37,41h1M42,41h1M43,41h1M45,41h1M50,41h1M51,41h1M53,41h1M57,41h1M59,41h1M60,41h1M3,42h1M4,42h1M5,42h1M6,42h1M8,42h1M9,42h1M10,42h1M11,42h1M15,42h1M16,42h1M19,42h1M21,42h1M22,42h1M23,42h1M24,42h1M26,42h1M28,42h1M30,42h1M32,42h1M33,42h1M34,42h1M35,42h1M36,42h1M38,42h1M40,42h1M41,42h1M42,42h1M44,42h1M46,42h1M48,42h1M49,42h1M50,42h1M52,42h1M55,42h1M58,42h1M59,42h1M60,42h1M4,43h1M7,43h1M8,43h1M9,43h1M11,43h1M13,43h1M15,43h1M16,43h1M19,43h1M20,43h1M23,43h1M25,43h1M27,43h1M29,43h1M30,43h1M31,43h1M33,43h1M35,43h1M37,43h1M39,43h1M41,43h1M43,43h1M44,43h1M46,43h1M47,43h1M49,43h1M51,43h1M53,43h1M55,43h1M60,43h1M1,44h1M4,44h1M6,44h1M9,44h1M10,44h1M11,44h1M13,44h1M14,44h1M16,44h1M17,44h1M18,44h1M19,44h1M20,44h1M22,44h1M24,44h1M26,44h1M30,44h1M32,44h1M33,44h1M34,44h1M36,44h1M37,44h1M38,44h1M41,44h1M42,44h1M43,44h1M44,44h1M45,44h1M48,44h1M50,44h1M52,44h1M53,44h1M55,44h1M56,44h1M58,44h1M59,44h1M60,44h1M1,45h1M7,45h1M8,45h1M10,45h1M15,45h1M19,45h1M20,45h1M22,45h1M25,45h1M27,45h1M31,45h1M33,45h1M35,45h1M37,45h1M39,45h1M41,45h1M43,45h1M45,45h1M47,45h1M48,45h1M51,45h1M53,45h1M57,45h1M59,45h1M5,46h1M6,46h1M11,46h1M13,46h1M14,46h1M15,46h1M16,46h1M17,46h1M20,46h1M21,46h1M22,46h1M23,46h1M24,46h1M26,46h1M29,46h1M32,46h1M33,46h1M34,46h1M37,46h1M38,46h1M40,46h1M41,46h1M42,46h1M44,46h1M46,46h1M48,46h1M49,46h1M52,46h1M53,46h1M54,46h1M55,46h1M58,46h1M60,46h1M1,47h1M4,47h1M5,47h1M11,47h1M14,47h1M15,47h1M16,47h1M18,47h1M19,47h1M20,47h1M22,47h1M24,47h1M25,47h1M27,47h1M29,47h1M30,47h1M31,47h1M33,47h1M35,47h1M37,47h1M39,47h1M41,47h1M43,47h1M45,47h1M47,47h1M49,47h1M53,47h1M54,47h1M56,47h1M57,47h1M59,47h1M2,48h1M4,48h1M5,48h1M6,48h1M12,48h1M13,48h1M14,48h1M15,48h1M16,48h1M17,48h1M19,48h1M23,48h1M25,48h1M26,48h1M28,48h1M29,48h1M32,48h1M34,48h1M36,48h1M38,48h1M40,48h1M42,48h1M44,48h1M46,48h1M48,48h1M50,48h1M52,48h1M54,48h1M56,48h1M58,48h1M60,48h1M2,49h1M4,49h1M5,49h1M7,49h1M8,49h1M9,49h1M11,49h1M12,49h1M13,49h1M15,49h1M18,49h1M21,49h1M22,49h1M23,49h1M24,49h1M25,49h1M26,49h1M27,49h1M28,49h1M29,49h1M31,49h1M33,49h1M35,49h1M37,49h1M39,49h1M43,49h1M45,49h1M46,49h1M47,49h1M49,49h1M51,49h1M52,49h1M55,49h1M58,49h1M59,49h1M2,50h1M3,50h1M4,50h1M5,50h1M6,50h1M9,50h1M11,50h1M12,50h1M13,50h1M18,50h1M19,50h1M23,50h1M24,50h1M26,50h1M30,50h1M32,50h1M34,50h1M36,50h1M38,50h1M40,50h1M41,50h1M44,50h1M45,50h1M48,50h1M50,50h1M54,50h1M56,50h1M57,50h1M60,50h1M0,51h1M1,51h1M2,51h1M4,51h1M7,51h1M12,51h1M13,51h1M14,51h1M15,51h1M16,51h1M18,51h1M19,51h1M20,51h1M23,51h1M25,51h1M29,51h1M32,51h1M33,51h1M35,51h1M37,51h1M39,51h1M41,51h1M43,51h1M45,51h1M47,51h1M49,51h1M51,51h1M52,51h1M53,51h1M55,51h1M58,51h1M59,51h1M0,52h1M1,52h1M2,52h1M3,52h1M6,52h1M7,52h1M10,52h1M11,52h1M13,52h1M14,52h1M15,52h1M16,52h1M18,52h1M20,52h1M22,52h1M24,52h1M27,52h1M28,52h1M29,52h1M30,52h1M31,52h1M32,52h1M34,52h1M36,52h1M38,52h1M40,52h1M42,52h1M44,52h1M46,52h1M48,52h1M50,52h1M51,52h1M52,52h1M53,52h1M54,52h1M55,52h1M56,52h1M57,52h1M60,52h1M8,53h1M9,53h1M12,53h1M13,53h1M14,53h1M16,53h1M22,53h1M23,53h1M27,53h1M28,53h1M32,53h1M33,53h1M35,53h1M39,53h1M44,53h1M45,53h1M47,53h1M49,53h1M51,53h1M52,53h1M56,53h1M57,53h1M59,53h1M0,54h1M1,54h1M2,54h1M3,54h1M4,54h1M5,54h1M6,54h1M9,54h1M14,54h1M18,54h1M21,54h1M24,54h1M25,54h1M27,54h1M28,54h1M30,54h1M32,54h1M34,54h1M36,54h1M37,54h1M40,54h1M42,54h1M43,54h1M44,54h1M46,54h1M48,54h1M50,54h1M52,54h1M54,54h1M56,54h1M58,54h1M60,54h1M0,55h1M6,55h1M9,55h1M11,55h1M12,55h1M13,55h1M19,55h1M20,55h1M21,55h1M22,55h1M24,55h1M26,55h1M27,55h1M28,55h1M32,55h1M33,55h1M35,55h1M39,55h1M43,55h1M45,55h1M48,55h1M49,55h1M51,55h1M52,55h1M56,55h1M59,55h1M0,56h1M2,56h1M3,56h1M4,56h1M6,56h1M8,56h1M12,56h1M13,56h1M14,56h1M20,56h1M21,56h1M22,56h1M24,56h1M25,56h1M26,56h1M28,56h1M29,56h1M30,56h1M31,56h1M32,56h1M33,56h1M35,56h1M37,56h1M38,56h1M39,56h1M41,56h1M42,56h1M43,56h1M46,56h1M47,56h1M48,56h1M50,56h1M52,56h1M53,56h1M54,56h1M55,56h1M56,56h1M60,56h1M0,57h1M2,57h1M3,57h1M4,57h1M6,57h1M9,57h1M10,57h1M16,57h1M17,57h1M19,57h1M23,57h1M25,57h1M26,57h1M27,57h1M29,57h1M31,57h1M32,57h1M33,57h1M35,57h1M36,57h1M37,57h1M38,57h1M39,57h1M40,57h1M41,57h1M43,57h1M44,57h1M45,57h1M48,57h1M49,57h1M51,57h1M53,57h1M55,57h1M58,57h1M59,57h1M0,58h1M2,58h1M3,58h1M4,58h1M6,58h1M8,58h1M11,58h1M12,58h1M13,58h1M14,58h1M16,58h1M20,58h1M21,58h1M22,58h1M24,58h1M25,58h1M30,58h1M31,58h1M34,58h1M35,58h1M37,58h1M39,58h1M42,58h1M43,58h1M45,58h1M46,58h1M47,58h1M48,58h1M50,58h1M52,58h1M53,58h1M54,58h1M56,58h1M58,58h1M60,58h1M0,59h1M6,59h1M9,59h1M10,59h1M11,59h1M12,59h1M14,59h1M17,59h1M19,59h1M21,59h1M23,59h1M25,59h1M26,59h1M27,59h1M29,59h1M31,59h1M39,59h1M41,59h1M43,59h1M45,59h1M46,59h1M47,59h1M49,59h1M51,59h1M53,59h1M55,59h1M59,59h1M0,60h1M1,60h1M2,60h1M3,60h1M4,60h1M5,60h1M6,60h1M8,60h1M10,60h1M11,60h1M14,60h1M15,60h1M18,60h1M20,60h1M24,60h1M25,60h1M28,60h1M30,60h1M32,60h1M33,60h1M34,60h1M36,60h1M37,60h1M40,60h1M45,60h1M48,60h1M52,60h1M54,60h1M56,60h1M58,60h1M59,60h1M60,60h1"/>
	</g>
</svg>
