<?xml version="1.0" encoding="UTF-8" standalone="no"?>
<!-- Created with Inkscape (http://www.inkscape.org/) -->

<svg
   xmlns:dc="http://purl.org/dc/elements/1.1/"
   xmlns:cc="http://creativecommons.org/ns#"
   xmlns:rdf="http://www.w3.org/1999/02/22-rdf-syntax-ns#"
   xmlns:svg="http://www.w3.org/2000/svg"
   xmlns="http://www.w3.org/2000/svg"
   xmlns:sodipodi="http://sodipodi.sourceforge.net/DTD/sodipodi-0.dtd"
   xmlns:inkscape="http://www.inkscape.org/namespaces/inkscape"
   width="50.568104mm"
   height="40mm"
   viewBox="0 0 50.568103 40"
   version="1.1"
   id="svg943"
   inkscape:version="0.92.3 (2405546, 2018-03-11)"
   sodipodi:docname="logo_big.svg">
  <defs
     id="defs937" />
  <sodipodi:namedview
     id="base"
     pagecolor="#ffffff"
     bordercolor="#666666"
     borderopacity="1.0"
     inkscape:pageopacity="0.0"
     inkscape:pageshadow="2"
     inkscape:zoom="1.8445543"
     inkscape:cx="-355.13721"
     inkscape:cy="82.052839"
     inkscape:document-units="mm"
     inkscape:current-layer="g871"
     showgrid="false"
     inkscape:window-width="2560"
     inkscape:window-height="1385"
     inkscape:window-x="1440"
     inkscape:window-y="651"
     inkscape:window-maximized="1"
     fit-margin-top="0"
     fit-margin-left="0"
     fit-margin-right="0"
     fit-margin-bottom="0" />
  <metadata
     id="metadata940">
    <rdf:RDF>
      <cc:Work
         rdf:about="">
        <dc:format>image/svg+xml</dc:format>
        <dc:type
           rdf:resource="http://purl.org/dc/dcmitype/StillImage" />
        <dc:title></dc:title>
      </cc:Work>
    </rdf:RDF>
  </metadata>
  <g
     inkscape:label="Layer 1"
     inkscape:groupmode="layer"
     id="layer1"
     transform="translate(-59.837339,-227.49998)">
    <g
       id="g871"
       transform="matrix(0.79999984,0,0,0.79999984,10.609718,58.619226)"
       style="fill:#fed136;fill-opacity:1;stroke-width:1.25">
      <path
         id="path1066"
         style="clip-rule:evenodd;fill:#ffffff;fill-opacity:1;fill-rule:nonzero;stroke-width:1.37803936;stroke-linejoin:round;stroke-miterlimit:1.41420996"
         d="m 124.74468,218.20435 -14.90237,-3.70796 c -0.19936,4.22807 -1.20836,10.2658 -2.66612,14.22318 0.041,-10.38068 -8.166522,-17.6284 -18.080381,-17.61858 -11.01804,0.009 -19.828536,9.45694 -17.724353,21.11811 -1.771123,-2.71777 -4.323214,-8.67511 -3.269894,-16.92121 l -6.467589,2.06233 c -1.02461,13.07053 5.808856,29.92124 23.306797,33.08613 v -1.69567 h 8.393756 v 2.14194 c 18.156684,-1.16819 30.261674,-15.92779 31.410154,-32.68827 z m -18.78587,17.19688 c -0.6046,1.60707 -1.43725,3.09927 -2.45037,4.45039 h -5.778508 l -4.395406,4.44954 H 84.94077 l -4.393764,-4.44953 h -5.79163 c -1.009843,-1.35113 -1.840852,-2.84333 -2.442167,-4.4504 h 4.022971 c 0.109906,0.57016 0.413449,1.35849 1.546349,1.8548 1.575877,0.54227 2.885146,0.46023 4.193597,0.28933 2.325676,-0.3478 3.324033,-1.799 3.76538,-3.0746 0.420016,-1.1961 0.579983,-2.76213 0.296133,-3.82939 -0.471697,-1.62511 -1.33552,-2.0894 -2.321573,-2.43067 -0.95898,-0.33233 -2.900737,-0.58 -4.93109,-0.28933 -0.730923,0.104 -1.254303,0.36093 -1.636587,0.68413 0.252667,-6.3486 5.459393,-11.43393 11.878586,-11.43393 6.420831,0 11.647245,5.08449 11.901555,11.43313 -0.3831,-0.32233 -0.90566,-0.57917 -1.636591,-0.68333 -2.030351,-0.29034 -3.972104,-0.0427 -4.932731,0.28933 -0.986049,0.34127 -1.849875,0.80556 -2.319933,2.43067 -0.283833,1.06726 -0.124693,2.63329 0.296967,3.82939 0.440524,1.2756 1.438884,2.7268 3.764557,3.0746 1.308449,0.17067 2.61772,0.25267 4.191961,-0.28933 1.13453,-0.49631 1.43806,-1.28464 1.54799,-1.8548 z m -14.283017,5.89499 c -0.176367,0.0813 -0.423296,0.0747 -0.718623,-0.0573 -0.0812,-0.036 -0.653811,-0.29932 -0.744871,-0.32566 -0.401149,-0.14367 -0.614436,-0.18967 -1.074653,-0.18967 -0.460209,0 -0.67186,0.0457 -1.073007,0.18967 -0.09103,0.0267 -0.66366,0.28933 -0.744873,0.32566 -0.296967,0.132 -0.543889,0.13867 -0.71944,0.0573 -0.298633,-0.17632 -0.52092,-0.8441 -0.447909,-1.74486 0.0714,-0.90153 0.230533,-1.46597 0.379,-1.98193 0.1493,-0.47497 0.515993,-1.50697 0.936829,-2.07715 0.230533,-0.27065 0.420836,-0.42082 0.827731,-0.4922 0.350285,-0.0673 0.841669,-0.064 0.841669,-0.064 0,0 0.491387,-0.003 0.841676,0.064 0.408531,0.0713 0.597211,0.22134 0.827727,0.4922 0.420837,0.57018 0.78753,1.60218 0.936833,2.07715 0.150133,0.51596 0.309267,1.0804 0.38064,1.98193 0.07136,0.90076 -0.1485,1.5685 -0.448729,1.74486 z m -29.4643,19.80477 h 8.393764 l 8.467589,-8.57343 h -8.39376 z m 50.385537,-8.57343 h -8.39376 l 8.46595,8.57343 h 8.39458 z m -38.798994,8.57343 h 8.394577 l 8.475796,-8.57343 h -8.39376 z m 27.202604,-8.57343 h -8.394578 l 8.476618,8.57343 h 8.3954 z"
         inkscape:connector-curvature="0" />
    </g>
  </g>
</svg>
