<?xml version="1.0" encoding="UTF-8" standalone="yes"?>
<!-- Created with qrencode 4.1.1 (https://fukuchi.org/works/qrencode/index.html) -->
<svg width="6.46cm" height="6.46cm" viewBox="0 0 61 61" preserveAspectRatio="none" version="1.1" xmlns="http://www.w3.org/2000/svg">
	<g id="QRcode">
		<rect x="0" y="0" width="61" height="61" fill="#000000" fill-opacity="0.000000"/>
		<path style="stroke:#e6e6e6" transform="translate(4,4.5)" d="M0,0h1M1,0h1M2,0h1M3,0h1M4,0h1M5,0h1M6,0h1M10,0h1M12,0h1M15,0h1M16,0h1M17,0h1M18,0h1M19,0h1M20,0h1M22,0h1M23,0h1M25,0h1M29,0h1M30,0h1M32,0h1M34,0h1M35,0h1M38,0h1M39,0h1M40,0h1M41,0h1M42,0h1M46,0h1M47,0h1M48,0h1M49,0h1M50,0h1M51,0h1M52,0h1M0,1h1M6,1h1M8,1h1M9,1h1M10,1h1M11,1h1M13,1h1M14,1h1M16,1h1M18,1h1M19,1h1M20,1h1M21,1h1M23,1h1M24,1h1M25,1h1M26,1h1M29,1h1M31,1h1M32,1h1M33,1h1M35,1h1M39,1h1M42,1h1M43,1h1M46,1h1M52,1h1M0,2h1M2,2h1M3,2h1M4,2h1M6,2h1M12,2h1M14,2h1M17,2h1M18,2h1M19,2h1M22,2h1M23,2h1M25,2h1M28,2h1M30,2h1M32,2h1M34,2h1M36,2h1M38,2h1M40,2h1M43,2h1M46,2h1M48,2h1M49,2h1M50,2h1M52,2h1M0,3h1M2,3h1M3,3h1M4,3h1M6,3h1M9,3h1M14,3h1M16,3h1M17,3h1M18,3h1M21,3h1M23,3h1M24,3h1M25,3h1M27,3h1M28,3h1M33,3h1M36,3h1M37,3h1M39,3h1M41,3h1M42,3h1M44,3h1M46,3h1M48,3h1M49,3h1M50,3h1M52,3h1M0,4h1M2,4h1M3,4h1M4,4h1M6,4h1M8,4h1M13,4h1M14,4h1M16,4h1M17,4h1M18,4h1M22,4h1M23,4h1M24,4h1M25,4h1M26,4h1M27,4h1M28,4h1M29,4h1M30,4h1M32,4h1M34,4h1M38,4h1M40,4h1M41,4h1M42,4h1M46,4h1M48,4h1M49,4h1M50,4h1M52,4h1M0,5h1M6,5h1M10,5h1M12,5h1M13,5h1M17,5h1M18,5h1M19,5h1M20,5h1M23,5h1M24,5h1M28,5h1M30,5h1M31,5h1M33,5h1M36,5h1M37,5h1M39,5h1M42,5h1M46,5h1M52,5h1M0,6h1M1,6h1M2,6h1M3,6h1M4,6h1M5,6h1M6,6h1M8,6h1M10,6h1M12,6h1M14,6h1M16,6h1M18,6h1M20,6h1M22,6h1M24,6h1M26,6h1M28,6h1M30,6h1M32,6h1M34,6h1M36,6h1M38,6h1M40,6h1M42,6h1M44,6h1M46,6h1M47,6h1M48,6h1M49,6h1M50,6h1M51,6h1M52,6h1M11,7h1M12,7h1M18,7h1M20,7h1M22,7h1M24,7h1M28,7h1M29,7h1M30,7h1M35,7h1M37,7h1M39,7h1M41,7h1M0,8h1M2,8h1M4,8h1M6,8h1M9,8h1M10,8h1M14,8h1M16,8h1M19,8h1M20,8h1M22,8h1M23,8h1M24,8h1M25,8h1M26,8h1M27,8h1M28,8h1M29,8h1M32,8h1M34,8h1M38,8h1M40,8h1M42,8h1M44,8h1M48,8h1M51,8h1M0,9h1M2,9h1M9,9h1M11,9h1M13,9h1M14,9h1M15,9h1M17,9h1M18,9h1M19,9h1M20,9h1M21,9h1M23,9h1M26,9h1M27,9h1M30,9h1M37,9h1M39,9h1M40,9h1M41,9h1M43,9h1M44,9h1M45,9h1M49,9h1M51,9h1M0,10h1M4,10h1M6,10h1M7,10h1M9,10h1M10,10h1M11,10h1M12,10h1M13,10h1M18,10h1M19,10h1M20,10h1M21,10h1M24,10h1M26,10h1M27,10h1M28,10h1M30,10h1M32,10h1M34,10h1M35,10h1M38,10h1M39,10h1M42,10h1M46,10h1M48,10h1M50,10h1M51,10h1M52,10h1M0,11h1M2,11h1M4,11h1M9,11h1M11,11h1M13,11h1M14,11h1M19,11h1M21,11h1M23,11h1M25,11h1M30,11h1M33,11h1M35,11h1M39,11h1M41,11h1M48,11h1M49,11h1M52,11h1M0,12h1M1,12h1M2,12h1M3,12h1M4,12h1M5,12h1M6,12h1M7,12h1M9,12h1M10,12h1M13,12h1M14,12h1M17,12h1M18,12h1M19,12h1M22,12h1M23,12h1M24,12h1M26,12h1M28,12h1M31,12h1M34,12h1M36,12h1M37,12h1M40,12h1M41,12h1M42,12h1M44,12h1M46,12h1M47,12h1M48,12h1M50,12h1M51,12h1M1,13h1M2,13h1M3,13h1M4,13h1M5,13h1M7,13h1M8,13h1M10,13h1M12,13h1M14,13h1M15,13h1M16,13h1M17,13h1M18,13h1M19,13h1M20,13h1M23,13h1M26,13h1M27,13h1M30,13h1M33,13h1M34,13h1M37,13h1M39,13h1M41,13h1M43,13h1M45,13h1M48,13h1M49,13h1M51,13h1M52,13h1M2,14h1M4,14h1M6,14h1M7,14h1M8,14h1M13,14h1M14,14h1M15,14h1M16,14h1M17,14h1M20,14h1M21,14h1M24,14h1M27,14h1M28,14h1M30,14h1M32,14h1M34,14h1M36,14h1M37,14h1M38,14h1M39,14h1M42,14h1M44,14h1M46,14h1M47,14h1M48,14h1M49,14h1M50,14h1M51,14h1M52,14h1M0,15h1M2,15h1M4,15h1M5,15h1M8,15h1M9,15h1M10,15h1M13,15h1M15,15h1M16,15h1M19,15h1M22,15h1M23,15h1M25,15h1M27,15h1M30,15h1M31,15h1M33,15h1M35,15h1M39,15h1M41,15h1M43,15h1M46,15h1M47,15h1M49,15h1M51,15h1M0,16h1M3,16h1M4,16h1M5,16h1M6,16h1M9,16h1M10,16h1M11,16h1M12,16h1M15,16h1M16,16h1M17,16h1M19,16h1M21,16h1M22,16h1M24,16h1M26,16h1M28,16h1M30,16h1M33,16h1M34,16h1M36,16h1M38,16h1M40,16h1M42,16h1M44,16h1M45,16h1M46,16h1M48,16h1M50,16h1M52,16h1M0,17h1M3,17h1M4,17h1M5,17h1M7,17h1M9,17h1M10,17h1M14,17h1M16,17h1M20,17h1M22,17h1M23,17h1M25,17h1M27,17h1M28,17h1M29,17h1M33,17h1M35,17h1M37,17h1M38,17h1M39,17h1M41,17h1M43,17h1M45,17h1M47,17h1M51,17h1M1,18h1M5,18h1M6,18h1M7,18h1M8,18h1M10,18h1M11,18h1M12,18h1M15,18h1M18,18h1M22,18h1M24,18h1M25,18h1M26,18h1M28,18h1M30,18h1M31,18h1M32,18h1M33,18h1M34,18h1M36,18h1M38,18h1M40,18h1M42,18h1M44,18h1M46,18h1M48,18h1M49,18h1M52,18h1M0,19h1M1,19h1M4,19h1M7,19h1M8,19h1M13,19h1M14,19h1M15,19h1M16,19h1M18,19h1M19,19h1M20,19h1M23,19h1M25,19h1M27,19h1M30,19h1M31,19h1M33,19h1M35,19h1M38,19h1M39,19h1M41,19h1M43,19h1M45,19h1M47,19h1M49,19h1M50,19h1M4,20h1M5,20h1M6,20h1M8,20h1M9,20h1M10,20h1M11,20h1M12,20h1M14,20h1M15,20h1M19,20h1M22,20h1M24,20h1M25,20h1M26,20h1M32,20h1M34,20h1M36,20h1M39,20h1M41,20h1M44,20h1M45,20h1M50,20h1M52,20h1M0,21h1M1,21h1M2,21h1M4,21h1M10,21h1M13,21h1M17,21h1M20,21h1M23,21h1M25,21h1M29,21h1M31,21h1M33,21h1M35,21h1M38,21h1M39,21h1M40,21h1M42,21h1M43,21h1M47,21h1M51,21h1M0,22h1M2,22h1M6,22h1M7,22h1M8,22h1M10,22h1M11,22h1M12,22h1M15,22h1M18,22h1M22,22h1M23,22h1M24,22h1M25,22h1M26,22h1M28,22h1M30,22h1M32,22h1M34,22h1M36,22h1M38,22h1M39,22h1M42,22h1M44,22h1M46,22h1M48,22h1M49,22h1M52,22h1M0,23h1M2,23h1M4,23h1M7,23h1M11,23h1M14,23h1M15,23h1M16,23h1M17,23h1M18,23h1M19,23h1M20,23h1M21,23h1M23,23h1M29,23h1M31,23h1M33,23h1M34,23h1M37,23h1M39,23h1M42,23h1M43,23h1M45,23h1M48,23h1M51,23h1M1,24h1M2,24h1M4,24h1M5,24h1M6,24h1M7,24h1M8,24h1M11,24h1M12,24h1M13,24h1M15,24h1M17,24h1M22,24h1M23,24h1M24,24h1M25,24h1M26,24h1M27,24h1M28,24h1M29,24h1M30,24h1M32,24h1M34,24h1M36,24h1M38,24h1M39,24h1M41,24h1M44,24h1M45,24h1M46,24h1M47,24h1M48,24h1M52,24h1M0,25h1M3,25h1M4,25h1M8,25h1M9,25h1M11,25h1M12,25h1M13,25h1M14,25h1M17,25h1M19,25h1M20,25h1M21,25h1M23,25h1M24,25h1M28,25h1M29,25h1M31,25h1M37,25h1M40,25h1M41,25h1M44,25h1M48,25h1M51,25h1M0,26h1M1,26h1M4,26h1M6,26h1M8,26h1M9,26h1M10,26h1M13,26h1M14,26h1M15,26h1M17,26h1M22,26h1M24,26h1M26,26h1M28,26h1M30,26h1M32,26h1M34,26h1M36,26h1M38,26h1M40,26h1M42,26h1M43,26h1M44,26h1M46,26h1M48,26h1M49,26h1M50,26h1M52,26h1M0,27h1M1,27h1M4,27h1M8,27h1M9,27h1M12,27h1M13,27h1M16,27h1M17,27h1M19,27h1M20,27h1M21,27h1M23,27h1M24,27h1M28,27h1M30,27h1M31,27h1M33,27h1M35,27h1M37,27h1M39,27h1M41,27h1M43,27h1M44,27h1M48,27h1M51,27h1M1,28h1M3,28h1M4,28h1M5,28h1M6,28h1M7,28h1M8,28h1M10,28h1M11,28h1M12,28h1M14,28h1M16,28h1M20,28h1M22,28h1M24,28h1M25,28h1M26,28h1M27,28h1M28,28h1M29,28h1M30,28h1M31,28h1M33,28h1M34,28h1M35,28h1M38,28h1M40,28h1M42,28h1M44,28h1M45,28h1M46,28h1M47,28h1M48,28h1M50,28h1M52,28h1M0,29h1M7,29h1M9,29h1M11,29h1M12,29h1M13,29h1M17,29h1M18,29h1M21,29h1M24,29h1M26,29h1M27,29h1M29,29h1M30,29h1M31,29h1M32,29h1M33,29h1M36,29h1M37,29h1M41,29h1M44,29h1M45,29h1M46,29h1M47,29h1M49,29h1M52,29h1M0,30h1M3,30h1M6,30h1M7,30h1M11,30h1M13,30h1M14,30h1M17,30h1M18,30h1M19,30h1M24,30h1M26,30h1M30,30h1M31,30h1M33,30h1M34,30h1M36,30h1M38,30h1M40,30h1M42,30h1M43,30h1M44,30h1M45,30h1M46,30h1M48,30h1M50,30h1M51,30h1M52,30h1M0,31h1M3,31h1M4,31h1M5,31h1M8,31h1M9,31h1M19,31h1M22,31h1M23,31h1M29,31h1M32,31h1M33,31h1M36,31h1M39,31h1M41,31h1M43,31h1M44,31h1M45,31h1M46,31h1M47,31h1M49,31h1M51,31h1M52,31h1M1,32h1M2,32h1M3,32h1M4,32h1M5,32h1M6,32h1M10,32h1M12,32h1M17,32h1M20,32h1M21,32h1M22,32h1M26,32h1M27,32h1M29,32h1M30,32h1M32,32h1M33,32h1M35,32h1M36,32h1M38,32h1M39,32h1M40,32h1M42,32h1M46,32h1M48,32h1M50,32h1M0,33h1M2,33h1M9,33h1M10,33h1M11,33h1M12,33h1M13,33h1M15,33h1M16,33h1M18,33h1M19,33h1M20,33h1M21,33h1M24,33h1M29,33h1M31,33h1M32,33h1M34,33h1M39,33h1M41,33h1M43,33h1M44,33h1M47,33h1M49,33h1M51,33h1M52,33h1M1,34h1M2,34h1M3,34h1M4,34h1M5,34h1M6,34h1M7,34h1M8,34h1M12,34h1M16,34h1M18,34h1M19,34h1M20,34h1M21,34h1M22,34h1M26,34h1M28,34h1M29,34h1M30,34h1M32,34h1M36,34h1M37,34h1M38,34h1M40,34h1M42,34h1M43,34h1M44,34h1M46,34h1M50,34h1M52,34h1M1,35h1M3,35h1M5,35h1M8,35h1M10,35h1M11,35h1M12,35h1M14,35h1M16,35h1M17,35h1M18,35h1M19,35h1M23,35h1M25,35h1M27,35h1M29,35h1M34,35h1M35,35h1M37,35h1M39,35h1M41,35h1M42,35h1M43,35h1M45,35h1M49,35h1M51,35h1M3,36h1M4,36h1M6,36h1M7,36h1M8,36h1M10,36h1M11,36h1M13,36h1M14,36h1M16,36h1M18,36h1M20,36h1M21,36h1M22,36h1M24,36h1M26,36h1M30,36h1M31,36h1M32,36h1M36,36h1M37,36h1M40,36h1M42,36h1M44,36h1M46,36h1M47,36h1M50,36h1M51,36h1M52,36h1M7,37h1M8,37h1M10,37h1M11,37h1M12,37h1M14,37h1M15,37h1M17,37h1M19,37h1M21,37h1M22,37h1M23,37h1M25,37h1M28,37h1M29,37h1M31,37h1M32,37h1M34,37h1M35,37h1M38,37h1M39,37h1M41,37h1M42,37h1M44,37h1M45,37h1M49,37h1M1,38h1M2,38h1M3,38h1M4,38h1M5,38h1M6,38h1M7,38h1M8,38h1M10,38h1M12,38h1M14,38h1M15,38h1M16,38h1M17,38h1M18,38h1M21,38h1M24,38h1M26,38h1M28,38h1M30,38h1M34,38h1M35,38h1M38,38h1M40,38h1M42,38h1M44,38h1M46,38h1M48,38h1M49,38h1M50,38h1M52,38h1M0,39h1M2,39h1M3,39h1M5,39h1M9,39h1M14,39h1M18,39h1M19,39h1M21,39h1M22,39h1M23,39h1M25,39h1M27,39h1M29,39h1M31,39h1M33,39h1M35,39h1M37,39h1M41,39h1M43,39h1M45,39h1M46,39h1M47,39h1M3,40h1M4,40h1M6,40h1M7,40h1M8,40h1M9,40h1M10,40h1M12,40h1M15,40h1M16,40h1M18,40h1M19,40h1M20,40h1M21,40h1M24,40h1M26,40h1M28,40h1M30,40h1M32,40h1M33,40h1M34,40h1M36,40h1M37,40h1M38,40h1M40,40h1M41,40h1M44,40h1M45,40h1M47,40h1M48,40h1M49,40h1M1,41h1M2,41h1M3,41h1M4,41h1M7,41h1M9,41h1M12,41h1M13,41h1M14,41h1M17,41h1M19,41h1M20,41h1M21,41h1M23,41h1M25,41h1M27,41h1M29,41h1M31,41h1M33,41h1M35,41h1M36,41h1M37,41h1M41,41h1M43,41h1M47,41h1M50,41h1M51,41h1M0,42h1M1,42h1M3,42h1M4,42h1M5,42h1M6,42h1M7,42h1M8,42h1M10,42h1M12,42h1M14,42h1M17,42h1M18,42h1M19,42h1M21,42h1M24,42h1M26,42h1M28,42h1M30,42h1M32,42h1M34,42h1M36,42h1M37,42h1M38,42h1M40,42h1M42,42h1M44,42h1M47,42h1M48,42h1M49,42h1M52,42h1M1,43h1M2,43h1M7,43h1M10,43h1M11,43h1M12,43h1M14,43h1M16,43h1M18,43h1M19,43h1M20,43h1M21,43h1M23,43h1M25,43h1M26,43h1M27,43h1M29,43h1M30,43h1M31,43h1M34,43h1M35,43h1M37,43h1M39,43h1M42,43h1M43,43h1M45,43h1M47,43h1M49,43h1M51,43h1M3,44h1M6,44h1M10,44h1M11,44h1M13,44h1M14,44h1M15,44h1M18,44h1M20,44h1M21,44h1M22,44h1M24,44h1M25,44h1M26,44h1M27,44h1M28,44h1M30,44h1M32,44h1M34,44h1M35,44h1M38,44h1M44,44h1M45,44h1M46,44h1M47,44h1M48,44h1M52,44h1M8,45h1M9,45h1M16,45h1M17,45h1M21,45h1M22,45h1M23,45h1M24,45h1M28,45h1M29,45h1M31,45h1M33,45h1M35,45h1M36,45h1M37,45h1M42,45h1M44,45h1M48,45h1M50,45h1M51,45h1M0,46h1M1,46h1M2,46h1M3,46h1M4,46h1M5,46h1M6,46h1M10,46h1M13,46h1M14,46h1M15,46h1M16,46h1M19,46h1M20,46h1M22,46h1M24,46h1M26,46h1M28,46h1M30,46h1M32,46h1M34,46h1M35,46h1M38,46h1M40,46h1M42,46h1M44,46h1M46,46h1M48,46h1M50,46h1M52,46h1M0,47h1M6,47h1M10,47h1M11,47h1M12,47h1M13,47h1M15,47h1M17,47h1M18,47h1M19,47h1M24,47h1M28,47h1M29,47h1M33,47h1M37,47h1M40,47h1M41,47h1M43,47h1M44,47h1M48,47h1M51,47h1M0,48h1M2,48h1M3,48h1M4,48h1M6,48h1M8,48h1M9,48h1M12,48h1M13,48h1M14,48h1M16,48h1M19,48h1M20,48h1M22,48h1M23,48h1M24,48h1M25,48h1M26,48h1M27,48h1M28,48h1M30,48h1M32,48h1M33,48h1M34,48h1M36,48h1M38,48h1M40,48h1M42,48h1M44,48h1M45,48h1M46,48h1M47,48h1M48,48h1M50,48h1M52,48h1M0,49h1M2,49h1M3,49h1M4,49h1M6,49h1M9,49h1M11,49h1M12,49h1M14,49h1M15,49h1M16,49h1M17,49h1M19,49h1M20,49h1M23,49h1M24,49h1M25,49h1M26,49h1M27,49h1M33,49h1M35,49h1M36,49h1M41,49h1M43,49h1M44,49h1M46,49h1M47,49h1M49,49h1M0,50h1M2,50h1M3,50h1M4,50h1M6,50h1M8,50h1M9,50h1M15,50h1M17,50h1M18,50h1M20,50h1M21,50h1M23,50h1M26,50h1M28,50h1M29,50h1M30,50h1M32,50h1M34,50h1M36,50h1M38,50h1M40,50h1M42,50h1M43,50h1M44,50h1M45,50h1M48,50h1M50,50h1M0,51h1M6,51h1M9,51h1M12,51h1M13,51h1M14,51h1M15,51h1M16,51h1M17,51h1M20,51h1M23,51h1M24,51h1M27,51h1M30,51h1M33,51h1M34,51h1M35,51h1M39,51h1M41,51h1M44,51h1M47,51h1M49,51h1M51,51h1M0,52h1M1,52h1M2,52h1M3,52h1M4,52h1M5,52h1M6,52h1M8,52h1M10,52h1M12,52h1M13,52h1M16,52h1M17,52h1M18,52h1M20,52h1M22,52h1M24,52h1M26,52h1M27,52h1M32,52h1M34,52h1M38,52h1M40,52h1M42,52h1M43,52h1M48,52h1M50,52h1M51,52h1M52,52h1"/>
	</g>
</svg>
